<?xml version="1.0" encoding="UTF-8" standalone="no"?>
<!-- Created with Inkscape (http://www.inkscape.org/) -->

<svg
   version="1.1"
   id="svg189"
   width="770.88"
   height="1099.84"
   viewBox="0 0 770.88 1099.84"
   sodipodi:docname="usb-spliiter3.svg"
   inkscape:version="1.2.2 (732a01da63, 2022-12-09)"
   xmlns:inkscape="http://www.inkscape.org/namespaces/inkscape"
   xmlns:sodipodi="http://sodipodi.sourceforge.net/DTD/sodipodi-0.dtd"
   xmlns="http://www.w3.org/2000/svg"
   xmlns:svg="http://www.w3.org/2000/svg">
  <defs
     id="defs193" />
  <sodipodi:namedview
     id="namedview191"
     pagecolor="#ffffff"
     bordercolor="#000000"
     borderopacity="0.25"
     inkscape:showpageshadow="2"
     inkscape:pageopacity="0.0"
     inkscape:pagecheckerboard="0"
     inkscape:deskcolor="#d1d1d1"
     showgrid="false"
     inkscape:zoom="0.95923046"
     inkscape:cx="171.49163"
     inkscape:cy="216.31923"
     inkscape:window-width="2400"
     inkscape:window-height="1271"
     inkscape:window-x="2391"
     inkscape:window-y="-9"
     inkscape:window-maximized="1"
     inkscape:current-layer="g195" />
  <g
     inkscape:groupmode="layer"
     inkscape:label="Image"
     id="g195">
    <path
       style="fill:#000000;stroke-width:0.32"
       d="m 209.99963,270.60626 -1.6,-0.42151 -1.00605,-0.52804 -1.00605,-0.52803 -1.03232,-1.03233 -1.03232,-1.03233 -0.55344,-1.29701 -0.5534,-1.29702 -0.21821,-1.94781 -0.21818,-1.9478 0.20423,-0.5322 0.20422,-0.53219 h 0.28576 0.28576 v 2.48 2.48 l 0.63661,1.04413 0.63661,1.04413 1.3622,-0.21173 1.36218,-0.21174 0.23261,-0.39078 0.23261,-0.39078 1.36739,0.26445 1.36739,0.26445 14.24,-0.007 14.24,-0.007 7.84,-0.29429 7.84,-0.2943 1.04,-0.20124 1.04,-0.20124 v 0.51632 0.51632 h 0.736 0.736 l 0.33642,0.33644 0.33644,0.33642 0.50148,-0.76536 0.5015,-0.76536 0.30637,-1.25106 0.30637,-1.25108 0.0808,-2.72 0.0807,-2.72 0.0706,-2.24 0.0706,-2.24 -0.29165,-0.79348 -0.29161,-0.79349 -0.38,-0.24161 -0.37997,-0.24161 -0.21773,-0.005 -0.21776,-0.005 -0.13869,0.72 -0.13865,0.72 -0.0436,-0.7139 -0.0436,-0.7139 -0.88,-0.2461 -0.88,-0.2461 h -5.76 -5.76 l -2.56,0.0746 -2.56,0.0746 -17.76,-0.17072 -17.76,-0.17072 -0.55901,0.41614 -0.55901,0.41614 -0.32233,3.97467 -0.32231,3.97467 -0.15868,0.15866 -0.15866,0.15867 -0.003,-2.37333 -0.003,-2.37334 -0.48646,-4.13179 -0.48644,-4.1318 0.0413,-1.3082 0.0413,-1.30821 -0.0812,-20 -0.0812,-20 0.2304,-0.71874 0.23037,-0.71875 -0.41178,-1.13873 -0.41177,-1.13873 0.39731,-0.24554 0.39728,-0.24554 -0.14291,-0.77698 -0.14292,-0.77699 h -0.0562 -0.0563 l -0.11382,-1.26959 -0.11382,-1.26959 0.34729,-0.21463 0.34727,-0.21463 -0.23789,-0.38494 -0.23792,-0.38493 -0.0667,-2.38684 -0.0667,-2.38684 0.28537,-0.17637 0.28538,-0.17637 -0.20227,-0.52716 -0.20231,-0.52716 0.0224,-4.64047 0.0221,-4.64048 0.16317,-2.96 0.16317,-2.96 -0.40496,-0.01 -0.40493,-0.01 0.52134,-0.30454 0.52135,-0.30453 -0.16298,-1.44574 -0.16294,-1.44573 0.2816,1.2e-4 0.28163,1.1e-4 -0.0394,-2.16011 -0.0394,-2.16012 0.29648,-0.37333 0.29648,-0.37333 0.33655,-2.18667 0.33654,-2.18667 0.31395,-0.38598 0.31395,-0.38598 -0.1984,-0.32101 -0.1984,-0.321 0.30861,-0.57301 0.30861,-0.57302 0.69264,-1.92 0.69264,-1.92 0.6105,-1.28 0.61049,-1.28 v -0.5104 -0.51041 l 0.64,-0.57919 0.64,-0.57919 v -0.39122 -0.39123 l 0.45943,-0.38129 0.45942,-0.38129 0.20013,-0.91116 0.20013,-0.91115 0.50624,-0.19427 0.50627,-0.19427 -0.19533,-0.19531 -0.19533,-0.19532 0.62954,-0.80031 0.6295,-0.8003 v -0.2236 -0.2236 l 1.28,-1.38649 1.28,-1.38649 v -0.3832 -0.3832 l 2.16,-2.26174 2.16,-2.26173 2.88,-2.61358 2.88,-2.61357 1.6,-1.03251 1.6,-1.03251 0.96,-0.60771 0.96,-0.60771 1.28,-0.7334 1.28,-0.7334 2.56,-1.25349 2.56,-1.25349 1.44,-0.61222 1.44,-0.61221 1.6,-0.51095 1.6,-0.51096 1.76,-0.48423 1.76,-0.48423 1.92,-0.34849 1.92,-0.34849 3.68,-0.52185 3.68,-0.52184 88.16,-0.0968 88.16,-0.0968 27.84,-0.008 27.84,-0.008 3.53024,0.29853 3.53027,0.29854 3.34973,0.53073 3.34976,0.53073 1.16375,0.4348 1.16377,0.4348 0.16883,-0.16884 0.16884,-0.16883 0.61792,0.33069 0.61788,0.33069 0.76951,0.14441 0.7695,0.14441 1.92,0.70577 1.92,0.70577 3.04,1.4552 3.04,1.45519 2.08,1.29846 2.08,1.29847 2.30298,1.69139 2.30294,1.6914 0.25706,0.005 0.25702,0.005 1.71623,1.75534 1.71622,1.75533 0.20378,0.002 0.20377,0.002 1.46218,1.51828 1.46214,1.51827 0.61786,0.95472 0.61782,0.95472 0.48,0.57255 0.48,0.57255 0.68567,0.77293 0.68566,0.77293 0.90118,1.7798 0.90119,1.7798 h 0.23814 0.23815 l 0.55833,1.2 0.55834,1.2 0.20077,0.16 0.20076,0.16 0.51008,0.96 0.51005,0.96 0.50327,1.36 0.50323,1.36 h -0.18026 -0.18029 l 0.53053,0.53051 0.5305,0.5305 -0.14327,0.7495 -0.14329,0.74949 h 0.25021 0.2502 l 0.22237,1.04 0.22237,1.04 0.24134,0.32 0.24132,0.32 0.21622,1.2 0.21622,1.2 h 0.30551 0.3055 v 0.49889 0.49888 l -0.32,-0.19777 -0.32,-0.19777 v 0.33888 0.33889 h 0.29456 0.29459 l 0.17812,0.88 0.17808,0.88 0.16291,3.01957 0.16288,3.01956 0.27597,0.27597 0.27596,0.27597 -0.15225,1.58446 -0.15226,1.58447 h 0.372 0.37197 l -0.30163,0.56356 -0.3016,0.56356 0.24537,3.83644 0.24535,3.83644 -0.23546,0.32 -0.23545,0.32 0.23616,0.64 0.23616,0.64 -0.14717,2.24 -0.14714,2.24 -0.30409,0.37151 -0.3041,0.37151 0.3055,0.18881 0.30548,0.18881 -0.16727,0.63968 -0.16729,0.63968 h 0.50144 0.5014 l 0.32618,-0.56 0.32618,-0.56 0.01,0.72 0.01,0.72 h -0.42864 -0.42864 l -0.36276,0.79621 -0.36278,0.79621 0.18563,0.48379 0.18567,0.48379 h -0.39344 -0.39341 l 0.31705,0.4 0.31706,0.4 0.0683,1.12 0.0683,1.12 -0.0211,1.28 -0.0211,1.28 -0.0173,2.32 -0.0173,2.32 h -0.34679 -0.34681 l 0.3647,0.43944 0.36471,0.43944 -0.18733,0.48819 -0.18733,0.48819 0.37597,0.23237 0.37597,0.23237 -0.28522,0.2 -0.28522,0.2 0.20061,3.2 0.20064,3.2 -0.32899,0.42439 -0.32899,0.42439 0.42957,0.26548 0.42953,0.26547 -0.38275,3.31014 -0.38272,3.31013 0.15773,1.12 0.15773,1.12 0.10556,4.57597 0.10557,4.57598 -0.15638,0.1564 -0.15642,0.15641 -0.031,5.19577 -0.031,5.19577 -0.24973,0.40407 -0.24972,0.40407 0.41171,1.60649 0.41174,1.60649 -0.37993,0.60838 -0.37997,0.60839 0.52752,0.29521 0.52755,0.29522 -0.66192,0.84149 -0.66192,0.8415 0.15389,0.58849 0.15389,0.58849 -0.52772,0.5277 -0.52771,0.52771 h 0.34288 0.34285 v 0.96 0.96 l -0.4,0.005 -0.4,0.005 0.41424,0.26278 0.41421,0.26278 0.01,3.52262 0.01,3.52262 -0.21194,1.2497 -0.21197,1.2497 -0.50323,1.12 -0.50326,1.12 -0.90835,1.13301 -0.90832,1.13301 -1.84029,0.94699 -1.84029,0.94699 h -22.88 -22.88 l -1.4424,-0.67537 -1.4424,-0.67536 -1.04909,-0.88275 -1.04909,-0.88275 -0.49795,-0.96291 -0.49792,-0.9629 -0.43517,-1.47898 -0.43516,-1.47898 0.0333,-1.04096 0.0333,-1.04097 -0.5287,-0.58423 -0.52874,-0.58423 v -0.33117 -0.33117 l -0.84365,-0.84363 -0.84361,-0.84364 h -0.40253 -0.40253 l -0.99382,0.92839 -0.99386,0.92838 -0.0125,0.27162 -0.0122,0.27161 -1.02768,0.70475 -1.02768,0.70474 -1.92,1.05526 -1.92,1.05525 -25.76,0.16 -25.76,0.16 -0.96,0.53685 -0.96,0.53685 -2.08,2.13746 -2.08,2.13745 -1.80886,0.91458 -1.80884,0.91458 -2.03116,0.30221 -2.03114,0.30222 -7.52,-0.10883 -7.52,-0.10883 -9.76,-0.21786 -9.76,-0.21786 -7.2,-0.0145 -7.2,-0.0145 -14.08,0.19073 -14.08,0.19073 -1.41542,-0.67599 -1.41546,-0.676 -2.74454,-2.6868 -2.74458,-2.68681 -0.8,-0.37781 -0.8,-0.37781 -25.42883,-0.0862 -25.42887,-0.0862 -1.21584,-0.3274 -1.21584,-0.32739 -1.67532,-1.36082 -1.6753,-1.36082 -0.7736,-1.18558 -0.77363,-1.18559 h -0.42637 -0.4264 v -0.48 -0.48 h -0.96 -0.96 v 0.35424 0.35424 l -0.43958,-0.16869 -0.43962,-0.16869 -0.40422,0.75531 -0.40423,0.75531 0.19335,0.96673 0.19334,0.96674 -0.26502,0.16379 -0.26503,0.16378 -0.16198,2.01804 -0.16199,2.01803 -0.67014,1.31361 -0.67018,1.31361 -1.0504,1.05041 -1.0504,1.05042 -1.66102,0.76043 -1.66099,0.76044 -21.70096,0.14501 -21.70093,0.14503 -1.6,-0.42152 z m 209.09334,-5.3096 0.61332,-0.61333 0.18668,0.18666 0.18666,0.18667 v -0.49415 -0.49415 l 0.48,-0.39837 0.48,-0.39836 v -0.30625 -0.30624 l -0.95968,0.21078 -0.95968,0.21078 0.22166,-0.57771 0.2217,-0.57772 0.79213,-0.889 0.79209,-0.88901 1.49044,-0.9564 1.4904,-0.9564 1.58067,-0.29977 1.58067,-0.29976 25.91482,-0.007 25.91478,-0.007 0.88,0.0642 0.88,0.0642 0.003,0.32 0.003,0.32 0.62954,-0.95509 0.62953,-0.95508 0.1561,-1.28492 0.15606,-1.28491 0.12426,-1.66921 0.12425,-1.66922 -0.31497,0.19467 -0.31498,0.19467 0.15075,-1.02703 0.15072,-1.02703 -0.74774,0.18767 -0.74774,0.18767 v -0.27834 -0.27835 l 0.34227,-0.98186 0.34227,-0.98186 1.15379,-0.5475 1.15376,-0.5475 2.59373,0.16182 2.59376,0.16181 1.59021,0.80805 1.59021,0.80804 4.64,0.18763 4.64,0.18763 22.10902,0.0545 22.10899,0.0545 0.36435,-0.22517 0.36436,-0.22518 0.0134,-23.90522 0.0134,-23.90522 0.0969,-8.96 0.0969,-8.96 -0.2178,-5.92 -0.21776,-5.92 -0.38697,-2.08 -0.38698,-2.08 -0.33894,-1.6 -0.33898,-1.6 -0.76601,-2.4 -0.76602,-2.4 -1.34019,-3.2 -1.34023,-3.2 -1.98,-3.36 -1.97996,-3.36 -1.48228,-2.01227 -1.48224,-2.01226 -2.47164,-2.59818 -2.47162,-2.59818 -2.7585,-2.3049 -2.75849,-2.3049 -1.72151,-1.11473 -1.7215,-1.11472 -1.61366,-0.96615 -1.61367,-0.96615 -2.22633,-1.03196 -2.22634,-1.03195 -1.76,-0.74106 -1.76,-0.74106 -3.04,-0.82478 -3.04,-0.82478 -3.84,-0.67181 -3.84,-0.67181 -118.9249,0.006 -118.92489,0.006 -2.67511,0.3613 -2.6751,0.3613 -2.92883,0.62944 -2.92887,0.62945 -3.15113,1.07552 -3.15117,1.07553 -2.52704,1.16715 -2.52704,1.16715 -2.27296,1.31679 -2.27296,1.31679 -2.91488,2.17839 -2.91485,2.17838 -4.00278,4.15483 -4.00279,4.15483 -2.24278,3.29664 -2.24282,3.29664 -1.12633,2.24 -1.12631,2.24 -0.98214,2.26835 -0.98211,2.26835 -0.78775,2.53165 -0.78771,2.53165 -0.49094,2.08 -0.49095,2.08 -0.36179,1.92 -0.36182,1.92 -0.13728,16 -0.13728,16 0.24665,22.72 0.24666,22.72 1.44,0.0277 1.44,0.0277 23.68,0.0747 23.68,0.0747 2.24,-0.22909 2.24,-0.22909 1.76,-0.9373 1.76,-0.9373 2.88,0.104 2.88,0.10399 0.84842,0.64 0.84838,0.64 0.32157,1.03969 0.32153,1.03968 -0.31782,0.19644 -0.31786,0.19643 -0.35609,-0.35612 -0.35805,-0.35609 h -0.44144 -0.44141 l 0.21085,0.96 0.21085,0.96 h -0.3793 -0.37933 l 0.12407,2.48 0.12406,2.48 0.46983,0.92858 0.46982,0.92859 0.96,0.10311 0.96,0.10311 0.32,-0.39169 0.32,-0.3917 26.56,0.18195 26.56,0.18195 0.97869,0.33813 0.97869,0.33813 0.94131,0.49009 0.94131,0.4901 1.05859,1.20167 1.05859,1.20167 0.46964,0.90815 0.46963,0.90816 h 0.32473 0.32474 l 0.9735,0.72 0.97354,0.72 18.7735,0.0891 18.77354,0.0891 1.12,-0.60467 1.12,-0.60468 0.10448,-0.87786 0.10448,-0.87786 -0.66448,-0.61905 -0.66448,-0.61906 v -0.44468 -0.44467 l 0.54704,-0.54703 0.54701,-0.54703 -0.0351,-2.21533 -0.0351,-2.21533 -0.46134,-0.5405 -0.46134,-0.5405 0.0569,-0.96 0.0569,-0.96 h 1.89251 1.89251 l -0.0714,0.96 -0.0714,0.96 -0.0523,1.19463 -0.0522,1.19464 0.37699,0.45424 0.37699,0.45425 -0.41338,0.13876 -0.41334,0.13875 0.44826,0.84151 0.44828,0.84152 -0.19494,2.52792 -0.19494,2.52791 0.44083,0.60294 0.44083,0.60293 h 17.86582 17.86586 l 1.70618,-0.25449 1.70617,-0.25449 0.17114,0.65449 0.17117,0.65449 h 0.44265 0.44269 z m 72.85015,-0.15218 0.77651,0.19489 v -0.55101 -0.55101 l 1.04,0.19338 1.04,0.19337 5.44,0.31974 5.44,0.31973 18.56,-0.022 18.56,-0.022 0.52954,0.2077 0.52953,0.20771 1.07047,-0.10255 1.07046,-0.10255 0.4136,-1.26669 0.41357,-1.2667 0.004,-3.6933 0.004,-3.69331 -0.14253,-2.27708 -0.14253,-2.27708 -0.20464,-0.64481 -0.20467,-0.64481 -0.87053,-0.17072 -0.87053,-0.17072 -25.12,0.13216 -25.12,0.13217 -0.8,0.18417 -0.8,0.18417 -0.7639,0.69628 -0.7639,0.69627 -0.14276,-0.4 -0.14278,-0.4 H 490.37 489.99365 l -0.39866,0.63833 -0.39862,0.63833 0.1927,5.68167 0.19274,5.68167 0.68073,1.44 0.68077,1.44 0.11168,-0.56019 0.11171,-0.5602 0.77648,0.19489 z"
       id="path357" />
  </g>
</svg>
