<?xml version="1.0" encoding="UTF-8"?>
<!DOCTYPE svg PUBLIC "-//W3C//DTD SVG 1.1//EN" "http://www.w3.org/Graphics/SVG/1.1/DTD/svg11.dtd">
<svg xmlns="http://www.w3.org/2000/svg" version="1.1" width="246px" height="141px" style="shape-rendering:geometricPrecision; text-rendering:geometricPrecision; image-rendering:optimizeQuality; fill-rule:evenodd; clip-rule:evenodd" xmlns:xlink="http://www.w3.org/1999/xlink">
<g><path style="opacity:1" fill="#fefffe" d="M -0.5,-0.5 C 81.5,-0.5 163.5,-0.5 245.5,-0.5C 245.5,46.5 245.5,93.5 245.5,140.5C 163.5,140.5 81.5,140.5 -0.5,140.5C -0.5,93.5 -0.5,46.5 -0.5,-0.5 Z"/></g>
<g><path style="opacity:1" fill="#000000" d="M 54.5,111.5 C 54.6646,108.482 54.498,105.482 54,102.5C 43.0427,102.544 31.876,102.544 20.5,102.5C 20.5,105.5 20.5,108.5 20.5,111.5C 19.5657,110.228 18.899,108.728 18.5,107C 18.3711,87.997 18.5377,68.8304 19,49.5C 23.0281,34.1395 32.8614,24.9728 48.5,22C 99.1667,21.3333 149.833,21.3333 200.5,22C 215.591,25.4247 225.091,34.5914 229,49.5C 229.965,70.2311 229.632,90.8978 228,111.5C 227.167,112.333 226.333,113.167 225.5,114C 215.167,114.667 204.833,114.667 194.5,114C 192.564,111.963 190.898,109.797 189.5,107.5C 187.833,108.333 186.167,109.167 184.5,110C 173.833,110.333 163.167,110.667 152.5,111C 151.5,112 150.5,113 149.5,114C 132.167,114.667 114.833,114.667 97.5,114C 96.5,113 95.5,112 94.5,111C 83.8333,110.667 73.1667,110.333 62.5,110C 60.8333,109.167 59.1667,108.333 57.5,107.5C 56.4793,108.901 55.4793,110.235 54.5,111.5 Z"/></g>
<g><path style="opacity:1" fill="#fefffe" d="M 50.5,23.5 C 99.1678,23.3333 147.834,23.5 196.5,24C 211.873,26.1015 221.706,34.6015 226,49.5C 226.5,66.4967 226.667,83.4967 226.5,100.5C 214.476,100.772 202.476,100.439 190.5,99.5C 186.208,99.5985 185.541,101.099 188.5,104C 188.355,104.772 188.022,105.439 187.5,106C 175.833,106.333 164.167,106.667 152.5,107C 150.892,109.609 148.559,110.942 145.5,111C 138.842,111.5 132.175,111.666 125.5,111.5C 125.032,107.869 125.699,104.535 127.5,101.5C 124.833,100.167 122.167,100.167 119.5,101.5C 124.968,110.896 122.134,114.229 111,111.5C 107.5,111.333 104,111.167 100.5,111C 97.9533,110.448 95.9533,109.114 94.5,107C 82.8333,106.667 71.1667,106.333 59.5,106C 59.1667,105.667 58.8333,105.333 58.5,105C 61.5875,102.029 61.0875,100.196 57,99.5C 53.1294,100.046 49.296,100.712 45.5,101.5C 37.1943,100.861 28.861,100.194 20.5,99.5C 20.0268,81.9562 20.5268,64.2896 22,46.5C 27.5775,33.7359 37.0775,26.0693 50.5,23.5 Z"/></g>
<g><path style="opacity:1" fill="#fefffe" d="M 195.5,101.5 C 205.796,101.986 216.129,101.986 226.5,101.5C 226.827,103.488 227.16,105.488 227.5,107.5C 227.523,109.067 227.023,110.4 226,111.5C 214.967,111.645 203.8,111.311 192.5,110.5C 192.049,106.896 193.049,103.896 195.5,101.5 Z"/></g>
<g><path style="opacity:1" fill="#fefffe" d="M 54.5,111.5 C 43.2867,111.403 31.9533,111.403 20.5,111.5C 20.5,108.5 20.5,105.5 20.5,102.5C 31.876,102.544 43.0427,102.544 54,102.5C 54.498,105.482 54.6646,108.482 54.5,111.5 Z"/></g>
<g><path style="opacity:1" fill="#000000" d="M 54.5,111.5 C 54.0472,112.458 53.3805,113.292 52.5,114C 42.5,114.667 32.5,114.667 22.5,114C 21.244,113.583 20.5774,112.75 20.5,111.5C 31.9533,111.403 43.2867,111.403 54.5,111.5 Z"/></g>
</svg>
